HIERARCHY
ROOT joint_Root
{
	OFFSET 0.0 0.0 0.0
	CHANNELS 6 Xposition Yposition Zposition Zrotation Xrotation Yrotation 
	JOINT Hips
	{
		OFFSET 4.5925 91.4895 -427.239
		CHANNELS 6 Xposition Yposition Zposition Zrotation Xrotation Yrotation 
		JOINT Spine
		{
			OFFSET 15.7357 0.0 0.0
			CHANNELS 6 Xposition Yposition Zposition Zrotation Xrotation Yrotation 
			JOINT Chest
			{
				OFFSET 8.98455 -0.406207 0.0
				CHANNELS 6 Xposition Yposition Zposition Zrotation Xrotation Yrotation 
				JOINT Neck
				{
					OFFSET 16.3773 0.0 0.0
					CHANNELS 6 Xposition Yposition Zposition Zrotation Xrotation Yrotation 
					JOINT Head
					{
						OFFSET 6.45672 0.0 0.0
						CHANNELS 6 Xposition Yposition Zposition Zrotation Xrotation Yrotation 
						End Site
						{
							OFFSET 0.0 0.0 0.0
						}
					}
				}
				JOINT Shoulder_L
				{
					OFFSET 12.9942 -0.242716 4.98039
					CHANNELS 6 Xposition Yposition Zposition Zrotation Xrotation Yrotation 
					JOINT UpperArm_L
					{
						OFFSET 5.34809 0.0 0.0
						CHANNELS 6 Xposition Yposition Zposition Zrotation Xrotation Yrotation 
						JOINT LowerArm_L
						{
							OFFSET 24.3286 1.87007e-05 0.0
							CHANNELS 6 Xposition Yposition Zposition Zrotation Xrotation Yrotation 
							JOINT Hand_L
							{
								OFFSET 22.2916 0.0 0.0
								CHANNELS 6 Xposition Yposition Zposition Zrotation Xrotation Yrotation 
								End Site
								{
									OFFSET 0.0 0.0 0.0
								}
							}
						}
					}
				}
				JOINT Shoulder_R
				{
					OFFSET 12.9945 -0.242716 -4.98039
					CHANNELS 6 Xposition Yposition Zposition Zrotation Xrotation Yrotation 
					JOINT UpperArm_R
					{
						OFFSET -5.34813 0.0 0.0
						CHANNELS 6 Xposition Yposition Zposition Zrotation Xrotation Yrotation 
						JOINT LowerArm_R
						{
							OFFSET -24.3289 0.000322201 0.0
							CHANNELS 6 Xposition Yposition Zposition Zrotation Xrotation Yrotation 
							JOINT Hand_R
							{
								OFFSET -22.2915 -0.000108084 0.0
								CHANNELS 6 Xposition Yposition Zposition Zrotation Xrotation Yrotation 
								End Site
								{
									OFFSET 0.0 0.0 0.0
								}
							}
						}
					}
				}
			}
		}
		JOINT UpperLeg_L
		{
			OFFSET -2.19248 -6.46944 0.0
			CHANNELS 6 Xposition Yposition Zposition Zrotation Xrotation Yrotation 
			JOINT LowerLeg_L
			{
				OFFSET 39.0811 0.0 -1.23785e-05
				CHANNELS 6 Xposition Yposition Zposition Zrotation Xrotation Yrotation 
				JOINT Foot_L
				{
					OFFSET 40.9854 0.0 -1.26872e-05
					CHANNELS 6 Xposition Yposition Zposition Zrotation Xrotation Yrotation 
					JOINT Toes_L
					{
						OFFSET 11.7543 0.0 0.0
						CHANNELS 6 Xposition Yposition Zposition Zrotation Xrotation Yrotation 
						End Site
						{
							OFFSET 0.0 0.0 0.0
						}
					}
				}
			}
		}
		JOINT UpperLeg_R
		{
			OFFSET -2.19251 6.46944 0.0
			CHANNELS 6 Xposition Yposition Zposition Zrotation Xrotation Yrotation 
			JOINT LowerLeg_R
			{
				OFFSET -39.0811 -0.00228153 -0.0401928
				CHANNELS 6 Xposition Yposition Zposition Zrotation Xrotation Yrotation 
				JOINT Foot_R
				{
					OFFSET -40.9854 0.0 0.0
					CHANNELS 6 Xposition Yposition Zposition Zrotation Xrotation Yrotation 
					JOINT Toes_R
					{
						OFFSET -11.7543 0.0 0.0
						CHANNELS 6 Xposition Yposition Zposition Zrotation Xrotation Yrotation 
						End Site
						{
							OFFSET 0.0 0.0 0.0
						}
					}
				}
			}
		}
	}
}
MOTION
Frames:	4
Frame Time:	0.0333333
0.000000 0.000000 0.000000 0.000000 0.000000 -0.000000 -8.981550 89.681200 -1.409040 86.336600 -5.328240 12.781000 15.735700 0.000005 -0.000001 82.208800 83.931300 -80.185200 8.984550 -0.406207 -0.000000 4.294140 -1.703980 4.106700 16.377300 -0.000001 -0.000001 30.242100 -3.885280 7.723010 6.456720 -0.000001 -0.000000 18.222500 -5.659570 5.553820 12.994200 -0.242716 4.980390 -85.563100 -11.086500 -68.024800 5.348090 -0.000007 -0.000001 -55.378200 -43.903100 -88.625400 24.328600 0.000019 0.000005 21.247000 15.245400 -55.929900 22.291600 -0.000001 0.000005 22.178700 5.240760 1.675670 12.994500 -0.242716 -4.980390 92.180000 -7.040090 -72.746200 -5.348130 -0.000001 -0.000004 -53.115300 -38.604000 -88.042100 -24.328900 0.000322 -0.000009 4.684420 3.174440 -55.956300 -22.291500 -0.000108 -0.000004 28.793800 5.480350 -5.761790 -2.192480 -6.469440 -0.000000 -164.742000 -10.029800 0.617160 39.081100 -0.000007 -0.000012 -0.329605 0.475176 34.747700 40.985400 -0.000006 -0.000013 -6.465240 4.742170 -70.695000 11.754300 -0.000000 0.000003 -0.000067 -0.000731 -16.605800 -2.192510 6.469440 -0.000001 -177.796000 22.727200 -176.694000 -39.081100 -0.002282 -0.040193 -0.142401 0.232901 32.029400 -40.985400 0.000008 0.000006 10.200900 12.346000 -73.758900 -11.754300 -0.000006 -0.000006 -0.001844 -0.026748 -17.660700
0.000000 0.000000 0.000000 0.000000 0.000000 -0.000000 -8.911640 89.667400 -1.333490 86.286000 -5.004080 12.793500 15.735700 0.000005 -0.000001 82.382600 83.958200 -80.321700 8.984550 -0.406207 -0.000000 4.245630 -1.662470 4.179090 16.377300 -0.000001 -0.000001 30.008300 -3.710220 7.852310 6.456720 -0.000001 -0.000000 17.924500 -5.461350 5.871060 12.994200 -0.242716 4.980390 -85.534700 -11.122800 -67.961600 5.348090 -0.000007 -0.000001 -55.359100 -44.015400 -88.961700 24.328600 0.000019 0.000005 21.324700 15.418500 -55.743200 22.291600 -0.000001 0.000005 22.297200 5.246930 1.513600 12.994500 -0.242716 -4.980390 92.195800 -7.094530 -72.752800 -5.348130 -0.000001 -0.000004 -53.176300 -38.837100 -88.495000 -24.328900 0.000322 -0.000009 4.758520 3.253990 -55.717600 -22.291500 -0.000108 -0.000004 28.781800 5.478260 -5.681960 -2.192480 -6.469440 -0.000000 -164.792000 -9.793610 0.519648 39.081100 -0.000007 -0.000012 -0.329143 0.472368 34.869300 40.985400 -0.000006 -0.000013 -6.386550 4.838960 -70.785500 11.754300 -0.000000 0.000003 -0.000062 -0.000683 -16.604000 -2.192510 6.469440 -0.000001 -177.843000 22.875300 -176.637000 -39.081100 -0.002282 -0.040193 -0.145542 0.237664 32.057300 -40.985400 0.000008 0.000006 10.092500 12.201900 -73.806100 -11.754300 -0.000006 -0.000006 -0.001870 -0.027076 -17.674100
0.000000 0.000000 0.000000 0.000000 0.000000 -0.000000 -8.850270 89.659600 -1.225620 86.254300 -4.713000 12.865800 15.735700 0.000005 -0.000001 82.769800 83.990200 -80.672500 8.984550 -0.406207 -0.000000 4.191590 -1.575730 4.247780 16.377300 -0.000001 -0.000001 29.844100 -3.626830 7.898380 6.456720 -0.000001 -0.000000 17.761300 -5.329030 6.238610 12.994200 -0.242716 4.980390 -85.485500 -11.167700 -67.821400 5.348090 -0.000007 -0.000001 -55.559600 -43.837700 -89.459900 24.328600 0.000019 0.000005 21.154400 15.632500 -55.147900 22.291600 -0.000001 0.000005 22.320000 5.254580 1.311240 12.994500 -0.242716 -4.980390 92.212700 -7.127540 -72.703600 -5.348130 -0.000001 -0.000004 -53.462100 -38.876000 -89.083800 -24.328900 0.000322 -0.000009 4.806610 3.317260 -55.473500 -22.291500 -0.000108 -0.000004 28.755800 5.478940 -5.708200 -2.192480 -6.469440 -0.000000 -164.867000 -9.528530 0.538794 39.081100 -0.000007 -0.000012 -0.324545 0.464477 34.943900 40.985400 -0.000006 -0.000013 -6.335340 4.835000 -70.886000 11.754300 -0.000000 0.000003 -0.000062 -0.000679 -16.603800 -2.192510 6.469440 -0.000001 -177.970000 23.063500 -176.466000 -39.081100 -0.002282 -0.040193 -0.149210 0.243571 32.052000 -40.985400 0.000008 0.000006 9.996060 12.133600 -73.867600 -11.754300 -0.000006 -0.000006 -0.001853 -0.026861 -17.665300
0.000000 0.000000 0.000000 0.000000 0.000000 -0.000000 -8.789480 89.652000 -1.102690 86.259400 -4.428670 12.925600 15.735700 0.000005 -0.000001 83.094000 84.032100 -80.958800 8.984550 -0.406207 -0.000000 4.115840 -1.500920 4.319660 16.377300 -0.000001 -0.000001 29.651400 -3.561410 7.955620 6.456720 -0.000001 -0.000000 17.749800 -5.205700 6.414980 12.994200 -0.242716 4.980390 -85.482100 -11.148900 -67.772700 5.348090 -0.000007 -0.000001 -55.508200 -43.696900 -89.728500 24.328600 0.000019 0.000005 20.690400 15.833300 -54.155100 22.291600 -0.000001 0.000005 22.165000 5.255660 1.282680 12.994500 -0.242716 -4.980390 92.221400 -7.145180 -72.679400 -5.348130 -0.000001 -0.000004 -53.762100 -38.819300 -89.627300 -24.328900 0.000322 -0.000009 4.808660 3.333400 -55.355200 -22.291500 -0.000108 -0.000004 28.715700 5.480890 -5.782790 -2.192480 -6.469440 -0.000000 -164.962000 -9.290110 0.580963 39.081100 -0.000007 -0.000012 -0.328076 0.468871 34.981700 40.985400 -0.000006 -0.000013 -6.279810 4.865500 -70.982400 11.754300 -0.000000 0.000003 -0.000059 -0.000655 -16.602900 -2.192510 6.469440 -0.000001 -178.101000 23.183200 -176.312000 -39.081100 -0.002282 -0.040193 -0.150778 0.246041 32.055700 -40.985400 0.000008 0.000006 9.898270 12.034900 -73.939600 -11.754300 -0.000006 -0.000006 -0.002008 -0.028810 -17.744600
